<?xml version="1.0" encoding="UTF-8" standalone="no"?>
<svg
   xmlns:dc="http://purl.org/dc/elements/1.1/"
   xmlns:cc="http://creativecommons.org/ns#"
   xmlns:rdf="http://www.w3.org/1999/02/22-rdf-syntax-ns#"
   xmlns:svg="http://www.w3.org/2000/svg"
   xmlns="http://www.w3.org/2000/svg"
   xmlns:sodipodi="http://sodipodi.sourceforge.net/DTD/sodipodi-0.dtd"
   xmlns:inkscape="http://www.inkscape.org/namespaces/inkscape"
   fill="none"
   viewBox="0 0 348 348"
   version="1.1"
   id="svg8"
   sodipodi:docname="Multiplication (Copt).svg"
   inkscape:version="0.92.4 (5da689c313, 2019-01-14)">
  <metadata
     id="metadata14">
    <rdf:RDF>
      <cc:Work
         rdf:about="">
        <dc:format>image/svg+xml</dc:format>
        <dc:type
           rdf:resource="http://purl.org/dc/dcmitype/StillImage" />
        <dc:title></dc:title>
      </cc:Work>
    </rdf:RDF>
  </metadata>
  <defs
     id="defs12">
    <filter
       inkscape:collect="always"
       style="color-interpolation-filters:sRGB"
       id="filter850"
       x="-0.015486239"
       width="1.0309725"
       y="-0.009794971"
       height="1.0195899">
      <feGaussianBlur
         inkscape:collect="always"
         stdDeviation="0.1978125"
         id="feGaussianBlur852" />
    </filter>
  </defs>
  <sodipodi:namedview
     pagecolor="#ffffff"
     bordercolor="#666666"
     borderopacity="1"
     objecttolerance="10"
     gridtolerance="10"
     guidetolerance="10"
     inkscape:pageopacity="0"
     inkscape:pageshadow="2"
     inkscape:window-width="1920"
     inkscape:window-height="1057"
     id="namedview10"
     showgrid="false"
     inkscape:snap-bbox="true"
     inkscape:snap-bbox-midpoints="true"
     showguides="true"
     inkscape:guide-bbox="true"
     inkscape:snap-to-guides="true"
     inkscape:bbox-nodes="true"
     inkscape:zoom="1.639518"
     inkscape:cx="136.68098"
     inkscape:cy="166.99845"
     inkscape:window-x="-8"
     inkscape:window-y="-8"
     inkscape:window-maximized="1"
     inkscape:current-layer="svg8">
    <sodipodi:guide
       position="174,0"
       orientation="1,0"
       id="guide865"
       inkscape:locked="false"
       inkscape:label=""
       inkscape:color="rgb(0,0,255)" />
    <sodipodi:guide
       position="0,174"
       orientation="0,1"
       id="guide867"
       inkscape:locked="false"
       inkscape:label=""
       inkscape:color="rgb(0,0,255)" />
  </sodipodi:namedview>
  <path
     stroke="#000"
     stroke-width="2"
     d="M5 5.8h337v337.6H5z"
     id="path2" />
  <path
     stroke="#000"
     stroke-width="2"
     d="M282.7 40.6c0-8.4 7-15.2 15.6-15.2 4.1 0 8 1.6 11 4.4a15 15 0 014.6 10.8c0 8.3-7 15.1-15.6 15.1s-15.6-6.8-15.6-15.1z"
     id="path4" />
  <path
     style="fill:none;fill-opacity:1;fill-rule:nonzero;stroke:#000000;stroke-width:2.66666675;stroke-linecap:round;stroke-linejoin:round;stroke-miterlimit:4;stroke-dasharray:none;stroke-dashoffset:0;stroke-opacity:1"
     d="m 33.194885,184.29919 h 41.306618 v 41.30662 H 33.194885 Z"
     id="rect821" />
  <path
     style="fill:none;fill-opacity:1;fill-rule:nonzero;stroke:#000000;stroke-width:2.66666675;stroke-linecap:round;stroke-linejoin:round;stroke-miterlimit:4;stroke-dasharray:none;stroke-dashoffset:0;stroke-opacity:1"
     d="m 33.194885,234.29919 h 41.306618 v 41.30662 H 33.194885 Z"
     id="rect827" />
  <path
     style="fill:none;fill-opacity:1;fill-rule:nonzero;stroke:#000000;stroke-width:2.66666675;stroke-linecap:round;stroke-linejoin:round;stroke-miterlimit:4;stroke-dasharray:none;stroke-dashoffset:0;stroke-opacity:1"
     d="m 33.194885,284.29919 h 41.306618 v 41.30662 H 33.194885 Z"
     id="rect829" />
  <path
     style="fill:none;fill-opacity:1;fill-rule:nonzero;stroke:#000000;stroke-width:2.66666675;stroke-linecap:round;stroke-linejoin:round;stroke-miterlimit:4;stroke-dasharray:none;stroke-dashoffset:0;stroke-opacity:1"
     d="M 93.194885,234.29919 H 134.5015 v 41.30662 H 93.194885 Z"
     id="rect831" />
  <path
     style="fill:none;fill-opacity:1;fill-rule:nonzero;stroke:#000000;stroke-width:2.66666675;stroke-linecap:round;stroke-linejoin:round;stroke-miterlimit:4;stroke-dasharray:none;stroke-dashoffset:0;stroke-opacity:1"
     d="M 93.194885,284.29919 H 134.5015 v 41.30662 H 93.194885 Z"
     id="rect833" />
  <path
     style="fill:none;fill-opacity:1;fill-rule:nonzero;stroke:#000000;stroke-width:2.66666675;stroke-linecap:round;stroke-linejoin:round;stroke-miterlimit:4;stroke-dasharray:none;stroke-dashoffset:0;stroke-opacity:1"
     d="m 153.19489,234.29919 h 41.30661 v 41.30662 h -41.30661 z"
     id="rect843" />
  <path
     style="fill:none;fill-opacity:1;fill-rule:nonzero;stroke:#000000;stroke-width:2.66666675;stroke-linecap:round;stroke-linejoin:round;stroke-miterlimit:4;stroke-dasharray:none;stroke-dashoffset:0;stroke-opacity:1"
     d="m 153.19489,284.29919 h 41.30661 v 41.30662 h -41.30661 z"
     id="rect845" />
  <path
     style="fill:none;fill-opacity:1;fill-rule:nonzero;stroke:#000000;stroke-width:2.66666675;stroke-linecap:round;stroke-linejoin:round;stroke-miterlimit:4;stroke-dasharray:none;stroke-dashoffset:0;stroke-opacity:1"
     d="m 213.19489,234.29919 h 41.30661 v 41.30662 h -41.30661 z"
     id="rect847" />
  <path
     style="fill:none;fill-opacity:1;fill-rule:nonzero;stroke:#000000;stroke-width:2.66666675;stroke-linecap:round;stroke-linejoin:round;stroke-miterlimit:4;stroke-dasharray:none;stroke-dashoffset:0;stroke-opacity:1"
     d="m 213.19489,284.29919 h 41.30661 v 41.30662 h -41.30661 z"
     id="rect849" />
  <path
     style="fill:none;fill-opacity:1;fill-rule:nonzero;stroke:#000000;stroke-width:2.66666675;stroke-linecap:round;stroke-linejoin:round;stroke-miterlimit:4;stroke-dasharray:none;stroke-dashoffset:0;stroke-opacity:1"
     d="m 273.19489,234.29919 h 41.30661 v 41.30662 h -41.30661 z"
     id="rect855" />
  <path
     style="fill:none;fill-opacity:1;fill-rule:nonzero;stroke:#000000;stroke-width:2.66666675;stroke-linecap:round;stroke-linejoin:round;stroke-miterlimit:4;stroke-dasharray:none;stroke-dashoffset:0;stroke-opacity:1"
     d="m 273.19489,284.29919 h 41.30661 v 41.30662 h -41.30661 z"
     id="rect857" />
  <path
     style="fill:none;fill-opacity:1;fill-rule:nonzero;stroke:#000000;stroke-width:2.66666675;stroke-linecap:round;stroke-linejoin:round;stroke-miterlimit:4;stroke-dasharray:none;stroke-dashoffset:0;stroke-opacity:1"
     d="m 273.19489,184.29919 h 41.30661 v 41.30662 h -41.30661 z"
     id="rect859" />
  <path
     style="fill:none;fill-opacity:1;fill-rule:nonzero;stroke:#000000;stroke-width:2.66666675;stroke-linecap:round;stroke-linejoin:round;stroke-miterlimit:4;stroke-dasharray:none;stroke-dashoffset:0;stroke-opacity:1"
     d="M 292.49153,100.50111 A 17.796427,17.796427 0 0 1 274.6951,118.29753 17.796427,17.796427 0 0 1 256.89867,100.50111 17.796427,17.796427 0 0 1 274.6951,82.704679 17.796427,17.796427 0 0 1 292.49153,100.50111 Z"
     id="path861" />
  <path
     style="fill:none;fill-opacity:1;fill-rule:nonzero;stroke:#000000;stroke-width:2.64670014;stroke-linecap:round;stroke-linejoin:round;stroke-miterlimit:4;stroke-dasharray:none;stroke-dashoffset:0;stroke-opacity:1"
     d="M 33.194885,134.95422 H 314.5015 V 173.6058 H 33.194885 Z"
     id="rect863" />
  <path
     style="fill:none;fill-opacity:1;fill-rule:nonzero;stroke:#000000;stroke-width:2.66666675;stroke-linecap:round;stroke-linejoin:round;stroke-miterlimit:4;stroke-dasharray:none;stroke-dashoffset:0;stroke-opacity:1"
     d="M 33.194885,22.552635 H 248.73428 V 118.95422 H 33.194885 Z"
     id="rect869" />
  <g
     aria-label="C"
     style="font-style:normal;font-variant:normal;font-weight:normal;font-stretch:normal;font-size:37.33333206px;line-height:1.25;font-family:sans-serif;-inkscape-font-specification:sans-serif;font-variant-ligatures:normal;font-variant-position:normal;font-variant-caps:normal;font-variant-numeric:normal;font-variant-alternates:normal;font-feature-settings:normal;text-indent:0;text-align:center;text-decoration:none;text-decoration-line:none;text-decoration-style:solid;text-decoration-color:#000000;letter-spacing:0px;word-spacing:0px;text-transform:none;writing-mode:lr-tb;direction:ltr;text-orientation:mixed;dominant-baseline:auto;baseline-shift:baseline;text-anchor:middle;white-space:normal;shape-padding:0;opacity:1;vector-effect:none;fill:#000000;fill-opacity:1;stroke:none;stroke-width:0.99999994;stroke-linecap:butt;stroke-linejoin:miter;stroke-miterlimit:4;stroke-dasharray:none;stroke-dashoffset:0;stroke-opacity:1"
     id="text832">
    <path
       d="m 65.104704,216.55537 q -1.002604,0.4375 -1.822916,0.82032 -0.802084,0.38281 -2.114584,0.80208 -1.111979,0.34635 -2.424479,0.58333 -1.294271,0.25521 -2.861979,0.25521 -2.953125,0 -5.377604,-0.82031 -2.40625,-0.83854 -4.192708,-2.60677 -1.75,-1.73177 -2.734375,-4.39323 -0.984375,-2.67969 -0.984375,-6.21615 0,-3.35416 0.947917,-5.99739 0.947916,-2.64323 2.734375,-4.46615 1.73177,-1.76823 4.174479,-2.69791 2.460937,-0.92969 5.45052,-0.92969 2.1875,0 4.356771,0.52864 2.1875,0.52865 4.848958,1.85938 v 4.28385 h -0.273437 q -2.242188,-1.8776 -4.447917,-2.73437 -2.205729,-0.85677 -4.721354,-0.85677 -2.059896,0 -3.71875,0.67448 -1.640625,0.65625 -2.934895,2.05989 -1.257813,1.36719 -1.96875,3.46354 -0.692709,2.07813 -0.692709,4.8125 0,2.86198 0.765625,4.92188 0.783854,2.05989 2.005209,3.35417 1.276041,1.34895 2.971354,2.0052 1.713541,0.63802 3.609374,0.63802 2.606771,0 4.885417,-0.89322 2.278646,-0.89323 4.265625,-2.67969 h 0.255208 z"
       style=""
       id="path875" />
  </g>
  <g
     aria-label="0"
     style="font-style:normal;font-variant:normal;font-weight:normal;font-stretch:normal;font-size:37.33333206px;line-height:1.25;font-family:sans-serif;-inkscape-font-specification:sans-serif;font-variant-ligatures:normal;font-variant-position:normal;font-variant-caps:normal;font-variant-numeric:normal;font-variant-alternates:normal;font-feature-settings:normal;text-indent:0;text-align:center;text-decoration:none;text-decoration-line:none;text-decoration-style:solid;text-decoration-color:#000000;letter-spacing:0px;word-spacing:0px;text-transform:none;writing-mode:lr-tb;direction:ltr;text-orientation:mixed;dominant-baseline:auto;baseline-shift:baseline;text-anchor:middle;white-space:normal;shape-padding:0;opacity:1;vector-effect:none;fill:#000000;fill-opacity:1;stroke:none;stroke-width:0.99999994;stroke-linecap:butt;stroke-linejoin:miter;stroke-miterlimit:4;stroke-dasharray:none;stroke-dashoffset:0;stroke-opacity:1"
     id="text836">
    <path
       d="m 63.236215,254.93429 q 0,7.30989 -2.296875,10.73697 -2.278646,3.40886 -7.091146,3.40886 -4.885416,0 -7.145833,-3.46354 -2.242187,-3.46354 -2.242187,-10.64584 0,-7.23697 2.278645,-10.68229 2.278646,-3.46354 7.109375,-3.46354 4.885417,0 7.127604,3.51823 2.260417,3.5 2.260417,10.59115 z m -4.794271,8.27604 q 0.638021,-1.47657 0.856771,-3.46354 0.236979,-2.00521 0.236979,-4.8125 0,-2.77084 -0.236979,-4.8125 -0.21875,-2.04167 -0.875,-3.46355 -0.638021,-1.40364 -1.75,-2.11458 -1.09375,-0.71094 -2.825521,-0.71094 -1.713541,0 -2.84375,0.71094 -1.111979,0.71094 -1.768229,2.15104 -0.619792,1.34896 -0.856771,3.51823 -0.21875,2.16927 -0.21875,4.75781 0,2.84375 0.200521,4.75782 0.200521,1.91406 0.856771,3.42708 0.601562,1.42187 1.695312,2.16927 1.11198,0.7474 2.934896,0.7474 1.713542,0 2.84375,-0.71094 1.130208,-0.71094 1.75,-2.15104 z"
       style=""
       id="path878" />
  </g>
  <g
     aria-label="1"
     style="font-style:normal;font-variant:normal;font-weight:normal;font-stretch:normal;font-size:37.33333206px;line-height:1.25;font-family:sans-serif;-inkscape-font-specification:sans-serif;font-variant-ligatures:normal;font-variant-position:normal;font-variant-caps:normal;font-variant-numeric:normal;font-variant-alternates:normal;font-feature-settings:normal;text-indent:0;text-align:center;text-decoration:none;text-decoration-line:none;text-decoration-style:solid;text-decoration-color:#000000;letter-spacing:0px;word-spacing:0px;text-transform:none;writing-mode:lr-tb;direction:ltr;text-orientation:mixed;dominant-baseline:auto;baseline-shift:baseline;text-anchor:middle;white-space:normal;shape-padding:0;opacity:1;vector-effect:none;fill:#000000;fill-opacity:1;stroke:none;stroke-width:0.99999994;stroke-linecap:butt;stroke-linejoin:miter;stroke-miterlimit:4;stroke-dasharray:none;stroke-dashoffset:0;stroke-opacity:1"
     id="text840">
    <path
       d="m 121.19455,268.5697 h -14.69271 v -2.77083 h 5.65104 v -18.19271 h -5.65104 v -2.47917 q 1.14844,0 2.46094,-0.18229 1.3125,-0.20052 1.98698,-0.5651 0.83854,-0.45573 1.3125,-1.14844 0.49219,-0.71094 0.5651,-1.89583 h 2.82552 v 24.46354 h 5.54167 z"
       style=""
       id="path881" />
  </g>
  <g
     aria-label="2"
     style="font-style:normal;font-variant:normal;font-weight:normal;font-stretch:normal;font-size:37.33333206px;line-height:1.25;font-family:sans-serif;-inkscape-font-specification:sans-serif;font-variant-ligatures:normal;font-variant-position:normal;font-variant-caps:normal;font-variant-numeric:normal;font-variant-alternates:normal;font-feature-settings:normal;text-indent:0;text-align:center;text-decoration:none;text-decoration-line:none;text-decoration-style:solid;text-decoration-color:#000000;letter-spacing:0px;word-spacing:0px;text-transform:none;writing-mode:lr-tb;direction:ltr;text-orientation:mixed;dominant-baseline:auto;baseline-shift:baseline;text-anchor:middle;white-space:normal;shape-padding:0;opacity:1;vector-effect:none;fill:#000000;fill-opacity:1;stroke:none;stroke-width:0.99999994;stroke-linecap:butt;stroke-linejoin:miter;stroke-miterlimit:4;stroke-dasharray:none;stroke-dashoffset:0;stroke-opacity:1"
     id="text844">
    <path
       d="m 183.0357,268.80667 h -18.375 v -3.80989 q 1.91406,-1.64063 3.82813,-3.28125 1.93229,-1.64063 3.59114,-3.26303 3.5,-3.39062 4.79427,-5.3776 1.29427,-2.00521 1.29427,-4.32031 0,-2.11458 -1.40364,-3.29948 -1.38542,-1.20313 -3.88282,-1.20313 -1.65885,0 -3.59114,0.58334 -1.93229,0.58333 -3.77344,1.78646 h -0.18229 v -3.82813 q 1.29427,-0.63802 3.44531,-1.16667 2.16927,-0.52864 4.19271,-0.52864 4.17448,0 6.54427,2.02344 2.36979,2.0052 2.36979,5.45052 0,1.54948 -0.40104,2.89843 -0.38281,1.33073 -1.14844,2.53386 -0.71093,1.13021 -1.67708,2.22396 -0.94792,1.09375 -2.3151,2.42448 -1.95052,1.91406 -4.02865,3.71875 -2.07812,1.78645 -3.88281,3.3177 h 14.60156 z"
       style=""
       id="path884" />
  </g>
  <g
     aria-label="3"
     style="font-style:normal;font-variant:normal;font-weight:normal;font-stretch:normal;font-size:37.33333206px;line-height:1.25;font-family:sans-serif;-inkscape-font-specification:sans-serif;text-align:center;writing-mode:lr-tb;direction:ltr;text-anchor:middle;fill:#000000;fill-opacity:1;fill-rule:nonzero;stroke:none;stroke-width:2.66666675;stroke-linecap:round;stroke-linejoin:round;stroke-miterlimit:4;stroke-dasharray:none;stroke-dashoffset:0;stroke-opacity:1;filter:url(#filter850)"
     id="text848">
    <path
       d="m 240.7844,255.4538 q 0.875,0.78385 1.4401,1.96875 0.56511,1.18489 0.56511,3.0625 0,1.85937 -0.67448,3.40885 -0.67448,1.54948 -1.89584,2.69792 -1.36718,1.27604 -3.22656,1.89583 -1.84114,0.60156 -4.04687,0.60156 -2.26042,0 -4.44792,-0.54687 -2.1875,-0.52865 -3.59115,-1.16667 v -3.80989 h 0.27344 q 1.54948,1.02083 3.64584,1.69531 2.09635,0.67448 4.04687,0.67448 1.14844,0 2.44271,-0.38282 1.29427,-0.38281 2.09635,-1.1302 0.83854,-0.80209 1.23959,-1.76823 0.41927,-0.96615 0.41927,-2.44271 0,-1.45833 -0.47396,-2.40625 -0.45573,-0.96615 -1.27604,-1.51302 -0.82032,-0.56511 -1.98698,-0.76563 -1.16667,-0.21875 -2.51563,-0.21875 h -1.64062 v -3.02604 h 1.27604 q 2.77083,0 4.41146,-1.14844 1.65885,-1.16666 1.65885,-3.39062 0,-0.98438 -0.41927,-1.71354 -0.41927,-0.7474 -1.16667,-1.22136 -0.78385,-0.47395 -1.67708,-0.65625 -0.89323,-0.18229 -2.02344,-0.18229 -1.73177,0 -3.68229,0.61979 -1.95052,0.6198 -3.68229,1.75 h -0.18229 v -3.80989 q 1.29427,-0.63802 3.44531,-1.16667 2.16927,-0.54687 4.19271,-0.54687 1.98698,0 3.5,0.36458 1.51302,0.36458 2.73437,1.16667 1.3125,0.875 1.98698,2.11458 0.67448,1.23958 0.67448,2.89844 0,2.26041 -1.60416,3.95573 -1.58594,1.67708 -3.75521,2.11458 v 0.25521 q 0.875,0.14583 2.00521,0.61979 1.1302,0.45573 1.91406,1.14844 z"
       style=""
       id="path887" />
  </g>
  <g
     aria-label="4"
     style="font-style:normal;font-variant:normal;font-weight:normal;font-stretch:normal;font-size:37.33333206px;line-height:1.25;font-family:sans-serif;-inkscape-font-specification:sans-serif;text-align:center;writing-mode:lr-tb;direction:ltr;text-anchor:middle;fill:#000000;fill-opacity:1;fill-rule:nonzero;stroke:none;stroke-width:2.66666675;stroke-linecap:round;stroke-linejoin:round;stroke-miterlimit:4;stroke-dasharray:none;stroke-dashoffset:0;stroke-opacity:1"
     id="text856">
    <path
       d="m 304.11123,260.88609 h -4.02865 v 7.63802 h -3.5 v -7.63802 h -12.99739 v -4.19271 l 13.14322,-15.3125 h 3.35417 v 16.58854 h 4.02865 z m -7.52865,-2.91667 v -12.25 l -10.51823,12.25 z"
       style=""
       id="path890" />
  </g>
  <g
     aria-label="5"
     style="font-style:normal;font-variant:normal;font-weight:normal;font-stretch:normal;font-size:37.33333206px;line-height:1.25;font-family:sans-serif;-inkscape-font-specification:sans-serif;text-align:center;writing-mode:lr-tb;direction:ltr;text-anchor:middle;fill:#000000;fill-opacity:1;fill-rule:nonzero;stroke:none;stroke-width:2.66666675;stroke-linecap:round;stroke-linejoin:round;stroke-miterlimit:4;stroke-dasharray:none;stroke-dashoffset:0;stroke-opacity:1"
     id="text860">
    <path
       d="m 62.689341,309.61918 q 0,1.89583 -0.692708,3.62761 -0.692709,1.73177 -1.895834,2.91666 -1.3125,1.27604 -3.135416,1.96875 -1.804688,0.67448 -4.192708,0.67448 -2.223959,0 -4.283854,-0.47396 -2.059896,-0.45573 -3.481771,-1.11198 v -3.84635 h 0.255208 q 1.494792,0.94792 3.5,1.6224 2.005208,0.65625 3.9375,0.65625 1.294271,0 2.497396,-0.36459 1.221354,-0.36458 2.16927,-1.27604 0.802084,-0.78385 1.203125,-1.8776 0.419271,-1.09375 0.419271,-2.53386 0,-1.40364 -0.492187,-2.36979 -0.473959,-0.96614 -1.330729,-1.54948 -0.947917,-0.69271 -2.315104,-0.96614 -1.348959,-0.29167 -3.026042,-0.29167 -1.604167,0 -3.098958,0.21875 -1.476563,0.21875 -2.552084,0.4375 v -13.98177 h 16.333333 v 3.1901 H 49.691946 v 7.21875 q 0.783854,-0.0729 1.604166,-0.10937 0.820313,-0.0365 1.421875,-0.0365 2.205729,0 3.864583,0.38281 1.658854,0.36459 3.044271,1.3125 1.458333,1.00261 2.260417,2.58854 0.802083,1.58594 0.802083,3.97396 z"
       style=""
       id="path893" />
  </g>
  <g
     aria-label="6"
     style="font-style:normal;font-variant:normal;font-weight:normal;font-stretch:normal;font-size:37.33333206px;line-height:1.25;font-family:sans-serif;-inkscape-font-specification:sans-serif;text-align:center;writing-mode:lr-tb;direction:ltr;text-anchor:middle;fill:#000000;fill-opacity:1;fill-rule:nonzero;stroke:none;stroke-width:2.66666675;stroke-linecap:round;stroke-linejoin:round;stroke-miterlimit:4;stroke-dasharray:none;stroke-dashoffset:0;stroke-opacity:1"
     id="text864">
    <path
       d="m 123.45497,309.69208 q 0,4.13802 -2.73438,6.76302 -2.71614,2.60677 -6.67187,2.60677 -2.00521,0 -3.64583,-0.61979 -1.64063,-0.61979 -2.89844,-1.84115 -1.56771,-1.51302 -2.42448,-4.01041 -0.83854,-2.4974 -0.83854,-6.01563 0,-3.60937 0.76562,-6.39844 0.78386,-2.78906 2.47917,-4.95833 1.60417,-2.0599 4.13802,-3.20833 2.53385,-1.16667 5.90625,-1.16667 1.07552,0 1.80469,0.0912 0.72916,0.0911 1.47656,0.32812 v 3.48177 h -0.18229 q -0.51042,-0.27344 -1.54948,-0.51041 -1.02083,-0.25521 -2.09636,-0.25521 -3.91927,0 -6.2526,2.46093 -2.33333,2.44271 -2.71615,6.61719 1.53125,-0.92969 3.00782,-1.40364 1.49479,-0.49219 3.44531,-0.49219 1.73177,0 3.04427,0.32812 1.33073,0.3099 2.71615,1.27604 1.60416,1.11198 2.40625,2.8073 0.82031,1.69531 0.82031,4.11979 z m -3.70052,0.14583 q 0,-1.69531 -0.51042,-2.80729 -0.49219,-1.11198 -1.64062,-1.93229 -0.83855,-0.58334 -1.85938,-0.76563 -1.02083,-0.18229 -2.13281,-0.18229 -1.54948,0 -2.88021,0.36458 -1.33073,0.36459 -2.73437,1.13021 -0.0365,0.40104 -0.0547,0.78386 -0.0182,0.36458 -0.0182,0.92968 0,2.88021 0.58333,4.5573 0.60156,1.65885 1.64063,2.625 0.83854,0.80208 1.80468,1.18489 0.98438,0.36459 2.13282,0.36459 2.64323,0 4.15625,-1.60417 1.51302,-1.6224 1.51302,-4.64844 z"
       style=""
       id="path896" />
  </g>
  <g
     aria-label="7"
     style="font-style:normal;font-variant:normal;font-weight:normal;font-stretch:normal;font-size:37.33333206px;line-height:1.25;font-family:sans-serif;-inkscape-font-specification:sans-serif;text-align:center;writing-mode:lr-tb;direction:ltr;text-anchor:middle;fill:#000000;fill-opacity:1;fill-rule:nonzero;stroke:none;stroke-width:2.66666675;stroke-linecap:round;stroke-linejoin:round;stroke-miterlimit:4;stroke-dasharray:none;stroke-dashoffset:0;stroke-opacity:1"
     id="text868">
    <path
       d="m 183.13596,295.44598 -12.28646,23.07813 h -3.90104 l 13.07031,-23.95313 h -15.45833 v -3.1901 h 18.57552 z"
       style=""
       id="path899" />
  </g>
  <g
     aria-label="8"
     style="font-style:normal;font-variant:normal;font-weight:normal;font-stretch:normal;font-size:37.33333206px;line-height:1.25;font-family:sans-serif;-inkscape-font-specification:sans-serif;text-align:center;writing-mode:lr-tb;direction:ltr;text-anchor:middle;fill:#000000;fill-opacity:1;fill-rule:nonzero;stroke:none;stroke-width:2.66666675;stroke-linecap:round;stroke-linejoin:round;stroke-miterlimit:4;stroke-dasharray:none;stroke-dashoffset:0;stroke-opacity:1"
     id="text872">
    <path
       d="m 243.49142,310.959 q 0,3.51823 -2.7526,5.85157 -2.73437,2.33333 -6.89062,2.33333 -4.41146,0 -7.03646,-2.27865 -2.60677,-2.27864 -2.60677,-5.83333 0,-2.26041 1.3125,-4.08333 1.3125,-1.84115 3.70052,-2.91667 v -0.10937 q -2.1875,-1.16667 -3.24479,-2.55209 -1.03907,-1.38541 -1.03907,-3.46354 0,-3.0625 2.51563,-5.10416 2.51562,-2.04167 6.39844,-2.04167 4.0651,0 6.48958,1.95052 2.42448,1.95052 2.42448,4.95833 0,1.84115 -1.14844,3.62761 -1.14844,1.76823 -3.3724,2.77083 v 0.10938 q 2.55209,1.09375 3.90105,2.69791 1.34895,1.60417 1.34895,4.08333 z m -4.32031,-13.2526 q 0,-1.95052 -1.51302,-3.09896 -1.49479,-1.16666 -3.82812,-1.16666 -2.29688,0 -3.77344,1.09375 -1.45833,1.09375 -1.45833,2.95312 0,1.3125 0.72916,2.27865 0.7474,0.94791 2.24219,1.69531 0.67448,0.32812 1.93229,0.85677 1.27604,0.52865 2.47917,0.875 1.80469,-1.20312 2.49739,-2.4974 0.69271,-1.29427 0.69271,-2.98958 z m 0.56511,13.59896 q 0,-1.67708 -0.7474,-2.67969 -0.72917,-1.02083 -2.88021,-2.04166 -0.85677,-0.40105 -1.8776,-0.7474 -1.02084,-0.34635 -2.71615,-0.96615 -1.64062,0.89323 -2.64323,2.42448 -0.98437,1.53125 -0.98437,3.46354 0,2.46094 1.69531,4.06511 1.69531,1.60416 4.30208,1.60416 2.66146,0 4.2474,-1.36718 1.60417,-1.36719 1.60417,-3.75521 z"
       style=""
       id="path902" />
  </g>
  <g
     aria-label="9"
     style="font-style:normal;font-variant:normal;font-weight:normal;font-stretch:normal;font-size:37.33333206px;line-height:1.25;font-family:sans-serif;-inkscape-font-specification:sans-serif;text-align:center;writing-mode:lr-tb;direction:ltr;text-anchor:middle;fill:#000000;fill-opacity:1;fill-rule:nonzero;stroke:none;stroke-width:2.66666675;stroke-linecap:round;stroke-linejoin:round;stroke-miterlimit:4;stroke-dasharray:none;stroke-dashoffset:0;stroke-opacity:1"
     id="text876">
    <path
       d="m 303.45498,303.33011 q 0,3.55469 -0.82032,6.45312 -0.80208,2.89844 -2.4427,4.94011 -1.65886,2.07812 -4.15625,3.20833 -2.4974,1.13021 -5.8698,1.13021 -0.94791,0 -1.78645,-0.10938 -0.83855,-0.0911 -1.4948,-0.30989 v -3.48177 h 0.1823 q 0.52864,0.27344 1.49479,0.52864 0.96614,0.23698 2.15104,0.23698 4.02864,0 6.30729,-2.40625 2.29688,-2.42448 2.66146,-6.67187 -1.69531,1.02083 -3.19011,1.45833 -1.49479,0.4375 -3.26302,0.4375 -1.67708,0 -3.04427,-0.32812 -1.34896,-0.32813 -2.71614,-1.27605 -1.60417,-1.11197 -2.42448,-2.82552 -0.80208,-1.71354 -0.80208,-4.10156 0,-4.15625 2.73437,-6.76302 2.73437,-2.60677 6.67187,-2.60677 1.96875,0 3.64584,0.61979 1.67708,0.60156 2.93489,1.82292 1.54948,1.51302 2.38802,3.90104 0.83855,2.36979 0.83855,6.14323 z m -3.6823,-0.78385 q 0,-2.82553 -0.58333,-4.53907 -0.58333,-1.71354 -1.60417,-2.66146 -0.85677,-0.82031 -1.84114,-1.16666 -0.98438,-0.36459 -2.13281,-0.36459 -2.625,0 -4.15625,1.64063 -1.51302,1.64062 -1.51302,4.61198 0,1.73177 0.49218,2.82552 0.49219,1.09375 1.65886,1.91406 0.82031,0.56511 1.80468,0.76563 0.98438,0.18229 2.1875,0.18229 1.42188,0 2.88021,-0.38281 1.45834,-0.38282 2.73438,-1.11198 0.0182,-0.38282 0.0365,-0.7474 0.0365,-0.38281 0.0365,-0.96614 z"
       style=""
       id="path905" />
  </g>
  <g
     aria-label="123"
     style="font-style:normal;font-variant:normal;font-weight:normal;font-stretch:normal;font-size:37.33333206px;line-height:1.25;font-family:sans-serif;-inkscape-font-specification:sans-serif;text-align:center;writing-mode:lr-tb;direction:ltr;text-anchor:middle;fill:#000000;fill-opacity:1;fill-rule:nonzero;stroke:none;stroke-width:2.66666675;stroke-linecap:round;stroke-linejoin:round;stroke-miterlimit:4;stroke-dasharray:none;stroke-dashoffset:0;stroke-opacity:1"
     id="text880">
    <path
       d="m 123.95677,84.325043 h -14.69271 v -2.770834 h 5.65104 V 63.361502 h -5.65104 v -2.479167 q 1.14844,0 2.46094,-0.182291 1.3125,-0.200521 1.98698,-0.565105 0.83854,-0.455729 1.3125,-1.148437 0.49218,-0.710938 0.5651,-1.895833 h 2.82552 v 24.46354 h 5.54167 z"
       style=""
       id="path908" />
    <path
       d="m 149.27708,84.325043 h -18.375 v -3.809896 q 1.91406,-1.640625 3.82812,-3.28125 1.9323,-1.640625 3.59115,-3.263021 3.5,-3.390624 4.79427,-5.377604 1.29427,-2.005208 1.29427,-4.320312 0,-2.114583 -1.40364,-3.299479 -1.38542,-1.203125 -3.88282,-1.203125 -1.65885,0 -3.59114,0.583333 -1.93229,0.583334 -3.77344,1.786459 h -0.18229 v -3.828125 q 1.29427,-0.638021 3.44531,-1.166667 2.16927,-0.528646 4.19271,-0.528646 4.17448,0 6.54427,2.023438 2.36979,2.005208 2.36979,5.45052 0,1.54948 -0.40104,2.898438 -0.38281,1.330729 -1.14844,2.533854 -0.71094,1.130208 -1.67708,2.223958 -0.94792,1.09375 -2.31511,2.424479 -1.95052,1.914063 -4.02864,3.71875 -2.07813,1.786458 -3.88281,3.317708 h 14.60156 z"
       style=""
       id="path910" />
    <path
       d="m 170.65989,71.254731 q 0.875,0.783854 1.4401,1.96875 0.56511,1.184895 0.56511,3.062499 0,1.859375 -0.67448,3.408855 -0.67448,1.549479 -1.89583,2.697916 -1.36719,1.276042 -3.22657,1.895833 -1.84114,0.601563 -4.04687,0.601563 -2.26042,0 -4.44792,-0.546875 -2.1875,-0.528646 -3.59114,-1.166667 V 79.36671 h 0.27343 q 1.54948,1.020833 3.64584,1.695312 2.09635,0.674479 4.04687,0.674479 1.14844,0 2.44271,-0.382812 1.29427,-0.382813 2.09635,-1.130209 0.83855,-0.802083 1.23959,-1.768229 0.41927,-0.966146 0.41927,-2.442708 0,-1.458333 -0.47396,-2.40625 -0.45573,-0.966146 -1.27604,-1.513021 -0.82031,-0.565104 -1.98698,-0.765625 -1.16667,-0.21875 -2.51563,-0.21875 h -1.64062 v -3.026041 h 1.27604 q 2.77083,0 4.41146,-1.148438 1.65885,-1.166666 1.65885,-3.390625 0,-0.984375 -0.41927,-1.713541 -0.41927,-0.747396 -1.16666,-1.221354 -0.78386,-0.473959 -1.67709,-0.65625 -0.89323,-0.182292 -2.02343,-0.182292 -1.73178,0 -3.6823,0.619792 -1.95052,0.619791 -3.68229,1.75 h -0.18229 v -3.809896 q 1.29427,-0.638021 3.44531,-1.166667 2.16927,-0.546875 4.19271,-0.546875 1.98698,0 3.5,0.364584 1.51302,0.364583 2.73438,1.166666 1.3125,0.875 1.98697,2.114584 0.67448,1.239583 0.67448,2.898437 0,2.260417 -1.60416,3.955729 -1.58594,1.677083 -3.75521,2.114583 v 0.255209 q 0.875,0.145833 2.00521,0.619791 1.13021,0.455729 1.91406,1.148438 z"
       style=""
       id="path912" />
  </g>
  <g
     aria-label="M"
     style="font-style:normal;font-variant:normal;font-weight:normal;font-stretch:normal;font-size:26.66666603px;line-height:1.25;font-family:sans-serif;-inkscape-font-specification:sans-serif;text-align:center;writing-mode:lr-tb;direction:ltr;text-anchor:middle;fill:#000000;fill-opacity:1;fill-rule:nonzero;stroke:none;stroke-width:2.66666675;stroke-linecap:round;stroke-linejoin:round;stroke-miterlimit:4;stroke-dasharray:none;stroke-dashoffset:0;stroke-opacity:1"
     id="text884">
    <path
       d="M 283.32792,110.19511 H 280.7498 V 93.489378 l -5.39063,11.367182 h -1.53646 L 268.47115,93.489378 V 110.19511 H 266.0623 V 90.807086 h 3.51562 l 5.16927,10.794274 5,-10.794274 h 3.58073 z"
       style=""
       id="path915" />
  </g>
  <g
     aria-label="×"
     style="font-style:normal;font-variant:normal;font-weight:normal;font-stretch:normal;font-size:37.33333206px;line-height:1.25;font-family:sans-serif;-inkscape-font-specification:sans-serif;text-align:center;writing-mode:lr-tb;direction:ltr;text-anchor:middle;fill:#000000;fill-opacity:1;fill-rule:nonzero;stroke:none;stroke-width:2.66666675;stroke-linecap:round;stroke-linejoin:round;stroke-miterlimit:4;stroke-dasharray:none;stroke-dashoffset:0;stroke-opacity:1"
     id="text888">
    <path
       d="m 303.81956,212.90042 -2.02344,2.02344 -7.94791,-8.02083 -7.94792,8.02083 -2.02344,-2.02344 8.02083,-7.94792 -8.02083,-7.94791 2.02344,-2.02344 7.94792,8.02083 7.94791,-8.02083 2.02344,2.02344 -8.02083,7.94791 z"
       style=""
       id="path918" />
  </g>
</svg>
